<?xml version="1.0" standalone="no"?>
<!-- Generator: Adobe Fireworks 10, Export SVG Extension by Aaron Beall (http://fireworks.abeall.com) . Version: 0.6.1  -->
<!DOCTYPE svg PUBLIC "-//W3C//DTD SVG 1.1//EN" "http://www.w3.org/Graphics/SVG/1.1/DTD/svg11.dtd">
<svg id="quintcircle" viewBox="0 0 350 320" style="background-color:#ffffff00" version="1.1"
	xmlns="http://www.w3.org/2000/svg" xmlns:xlink="http://www.w3.org/1999/xlink" xml:space="preserve"
	x="0px" y="0px" width="350px" height="320px"
>
	<g id="Layer%201">
		<path d="M 27.6593 124.5038 L 51.3638 128.2583 L 47.6094 151.9628 L 23.9049 148.2084 L 27.6593 124.5038 Z" stroke="#000000" stroke-width="2" fill="none"/>
		<path d="M 46.2731 81.5686 L 67.6572 92.4644 L 56.7615 113.8486 L 35.3773 102.9528 L 46.2731 81.5686 Z" stroke="#000000" stroke-width="2" fill="none"/>
		<path d="M 77.0814 45.671 L 94.0519 62.6415 L 77.0814 79.6121 L 60.1108 62.6415 L 77.0814 45.671 Z" stroke="#000000" stroke-width="2" fill="none"/>
		<path d="M 117.3621 21.129 L 128.2578 42.5131 L 106.8737 53.4089 L 95.9779 32.0247 L 117.3621 21.129 Z" stroke="#000000" stroke-width="2" fill="none"/>
		<path d="M 163.4659 9.1493 L 167.2203 32.8538 L 143.5158 36.6082 L 139.7614 12.9037 L 163.4659 9.1493 Z" stroke="#000000" stroke-width="2" fill="none"/>
		<path d="M 211.3633 12.8255 L 207.6089 36.53 L 183.9044 32.7756 L 187.6588 9.071 L 211.3633 12.8255 Z" stroke="#000000" stroke-width="2" fill="none"/>
		<path d="M 254.2985 31.4392 L 243.4028 52.8234 L 222.0186 41.9276 L 232.9144 20.5435 L 254.2985 31.4392 Z" stroke="#000000" stroke-width="2" fill="none"/>
		<path d="M 290.1962 62.2475 L 273.2256 79.2181 L 256.2551 62.2475 L 273.2256 45.2769 L 290.1962 62.2475 Z" stroke="#000000" stroke-width="2" fill="none"/>
		<path d="M 314.7382 102.5282 L 293.354 113.424 L 282.4583 92.0398 L 303.8424 81.144 L 314.7382 102.5282 Z" stroke="#000000" stroke-width="2" fill="none"/>
		<path d="M 324.7179 148.632 L 301.0134 152.3865 L 297.2589 128.682 L 320.9635 124.9275 L 324.7179 148.632 Z" stroke="#000000" stroke-width="2" fill="none"/>
		<path d="M 321.9635 196.4512 L 298.2589 192.6968 L 302.0134 168.9923 L 325.7179 172.7467 L 321.9635 196.4512 Z" stroke="#000000" stroke-width="2" fill="none"/>
		<path d="M 303.3497 239.3864 L 281.9655 228.4907 L 292.8613 207.1065 L 314.2455 218.0023 L 303.3497 239.3864 Z" stroke="#000000" stroke-width="2" fill="none"/>
		<path d="M 272.5414 275.2841 L 255.5709 258.3136 L 272.5414 241.343 L 289.512 258.3136 L 272.5414 275.2841 Z" stroke="#000000" stroke-width="2" fill="none"/>
		<path d="M 232.2607 299.8261 L 221.365 278.442 L 242.7491 267.5462 L 253.6449 288.9303 L 232.2607 299.8261 Z" stroke="#000000" stroke-width="2" fill="none"/>
		<path d="M 186.1569 311.8058 L 182.4025 288.1013 L 206.107 284.3469 L 209.8614 308.0514 L 186.1569 311.8058 Z" stroke="#000000" stroke-width="2" fill="none"/>
		<path d="M 138.2595 308.1296 L 142.0139 284.4251 L 165.7184 288.1795 L 161.964 311.884 L 138.2595 308.1296 Z" stroke="#000000" stroke-width="2" fill="none"/>
		<path d="M 95.3243 289.5158 L 106.22 268.1317 L 127.6042 279.0275 L 116.7084 300.4116 L 95.3243 289.5158 Z" stroke="#000000" stroke-width="2" fill="none"/>
		<path d="M 59.4266 258.7076 L 76.3972 241.737 L 93.3677 258.7076 L 76.3972 275.6781 L 59.4266 258.7076 Z" stroke="#000000" stroke-width="2" fill="none"/>
		<path d="M 34.8846 218.4269 L 56.2688 207.5311 L 67.1646 228.9153 L 45.7804 239.811 L 34.8846 218.4269 Z" stroke="#000000" stroke-width="2" fill="none"/>
		<path d="M 24.9049 172.323 L 48.6094 168.5686 L 52.3639 192.2731 L 28.6593 196.0276 L 24.9049 172.323 Z" stroke="#000000" stroke-width="2" fill="none"/>
		<path id="Ellipse" d="M 7 159.5 C 7 157.0147 9.0147 155 11.5 155 C 13.9853 155 16 157.0147 16 159.5 C 16 161.9853 13.9853 164 11.5 164 C 9.0147 164 7 161.9853 7 159.5 Z" fill="#000000"/>
	</g>
</svg>
